<?xml version="1.0" encoding="UTF-8" standalone="no"?><!DOCTYPE svg PUBLIC "-//W3C//DTD SVG 1.1//EN" "http://www.w3.org/Graphics/SVG/1.1/DTD/svg11.dtd"><svg width="100%" height="100%" viewBox="0 0 70 3" version="1.1" xmlns="http://www.w3.org/2000/svg" xmlns:xlink="http://www.w3.org/1999/xlink" xml:space="preserve" xmlns:serif="http://www.serif.com/" style="fill-rule:evenodd;clip-rule:evenodd;stroke-linejoin:round;stroke-miterlimit:2;"><path id="menu-1-line-left" d="M0.063,2.224c-0.047,0.007 0.001,-1.158 0.006,-1.153c0.012,0.011 1.289,-0.881 1.242,-0.851c-0.046,0.03 10.743,0 10.743,0c0,0 2.6,0.205 7.443,0.136c4.844,-0.068 12.03,0.308 17.021,0.29c4.962,-0.017 6.168,-0.247 12.114,-0.327c5.945,-0.08 5.635,0.066 9.553,0.156c3.919,0.091 7.354,0.264 7.354,0.264l3.509,0.045l0.007,1.308c0,0 -0.618,0.074 -3.776,0.234c-3.091,0.157 -8.781,0.32 -10.664,0.06c0,0 -6.862,-0.169 -10.67,-0.232c-3.807,-0.063 -8.273,-0.162 -11.941,-0.158c-3.669,0.003 -8.646,0.247 -10.939,-0.025c-2.341,-0.279 -5.282,-0.217 -7.375,0.101c-2.098,0.32 -13.627,0.152 -13.627,0.152Z" style="fill:#3d1419;"/></svg>