<?xml version="1.0" encoding="UTF-8" standalone="no"?><!DOCTYPE svg PUBLIC "-//W3C//DTD SVG 1.1//EN" "http://www.w3.org/Graphics/SVG/1.1/DTD/svg11.dtd"><svg width="100%" height="100%" viewBox="0 0 70 3" version="1.1" xmlns="http://www.w3.org/2000/svg" xmlns:xlink="http://www.w3.org/1999/xlink" xml:space="preserve" xmlns:serif="http://www.serif.com/" style="fill-rule:evenodd;clip-rule:evenodd;stroke-linejoin:round;stroke-miterlimit:2;"><path id="menu-1-line-right" d="M69.112,2.176c0.047,0.006 -0.001,-1.158 -0.006,-1.153c-0.012,0.011 -1.289,-0.882 -1.242,-0.851c0.046,0.029 -10.743,0 -10.743,0c0,0 -2.6,0.205 -7.443,0.136c-4.844,-0.069 -12.03,0.307 -17.021,0.29c-4.962,-0.017 -6.168,-0.247 -12.114,-0.327c-5.945,-0.08 -5.635,0.066 -9.553,0.156c-3.919,0.091 -7.354,0.264 -7.354,0.264l-3.509,0.045l-0.007,1.308c0,0 0.618,0.073 3.776,0.234c3.091,0.157 8.781,0.32 10.664,0.06c0,0 6.862,-0.169 10.67,-0.232c3.807,-0.063 8.273,-0.162 11.941,-0.159c3.669,0.004 8.646,0.248 10.938,-0.025c2.342,-0.278 5.283,-0.217 7.376,0.102c2.098,0.319 13.627,0.152 13.627,0.152Z" style="fill:#3d1419;"/></svg>