<?xml version="1.0" encoding="UTF-8" standalone="no"?><!DOCTYPE svg PUBLIC "-//W3C//DTD SVG 1.1//EN" "http://www.w3.org/Graphics/SVG/1.1/DTD/svg11.dtd"><svg width="100%" height="100%" viewBox="0 0 26 28" version="1.1" xmlns="http://www.w3.org/2000/svg" xmlns:xlink="http://www.w3.org/1999/xlink" xml:space="preserve" xmlns:serif="http://www.serif.com/" style="fill-rule:evenodd;clip-rule:evenodd;stroke-linejoin:round;stroke-miterlimit:2;"><path id="menu-1-note" d="M0.22,24.651c0.155,2.13 1.636,2.893 3.608,2.894c1.949,0 3.796,-0.282 4.446,-3.068c0.141,-0.227 0.087,-15.241 0.087,-15.241c0,0 3.867,-1.24 7.629,-1.778c3.762,-0.539 7.564,-0.649 7.564,-0.649l-0.017,12.418c0,0 -1.627,-0.771 -3.705,0.037c-1.831,0.712 -2.414,1.805 -2.289,3.375c0.116,1.464 1.308,2.415 3.196,2.536c2.843,0.184 3.979,-0.291 4.735,-2.891c0.057,-0.196 0.012,-22.153 0.012,-22.153c0,0 -6.667,0.836 -9.87,1.679c-3.713,0.976 -9.187,3.215 -9.187,3.215l-0.067,16.448c0,0 -1.381,-0.564 -3.782,0.087c-1.121,0.304 -2.502,1.134 -2.36,3.091Zm23.291,-22.211c0,0 -3.988,0.403 -7.612,1.307c-3.495,0.872 -7.492,2.525 -7.492,2.525l0,1.801c0,0 4.17,-1.29 7.492,-1.923c3.396,-0.646 7.649,-1.14 7.649,-1.14l-0.037,-2.57Z" style="fill:url(#_Linear1);"/><defs><linearGradient id="_Linear1" x1="0" y1="0" x2="1" y2="0" gradientUnits="userSpaceOnUse" gradientTransform="matrix(25.348,0,0,27.4152,0.219848,13.8381)"><stop offset="0" style="stop-color:#f15b60;stop-opacity:1"/><stop offset="1" style="stop-color:#f59069;stop-opacity:1"/></linearGradient></defs></svg>