<?xml version="1.0" encoding="UTF-8" standalone="no"?><!DOCTYPE svg PUBLIC "-//W3C//DTD SVG 1.1//EN" "http://www.w3.org/Graphics/SVG/1.1/DTD/svg11.dtd"><svg width="100%" height="100%" viewBox="0 0 94 4" version="1.1" xmlns="http://www.w3.org/2000/svg" xmlns:xlink="http://www.w3.org/1999/xlink" xml:space="preserve" xmlns:serif="http://www.serif.com/" style="fill-rule:evenodd;clip-rule:evenodd;stroke-linejoin:round;stroke-miterlimit:2;"><path id="menu-4line-right" d="M93.462,0.128c0,0 -1.906,-0.11 -3.113,0.082c-1.206,0.192 -2.662,0.347 -3.509,0.149c-0.846,-0.197 -1.842,-0.3 -3.212,-0.302c0,0 0,0 0,0c-1.37,-0.002 -4.561,0.313 -5.68,0.381c-1.118,0.067 -4.323,0.05 -6.207,-0.083c-1.884,-0.134 -3.466,-0.257 -4.309,-0.257c-0.843,0.001 -5.504,0.061 -6.694,0.21c-1.19,0.148 -4.246,0.201 -6.013,0.361c-1.767,0.16 -12.43,0.218 -13.739,0.014c-1.309,-0.204 -4.05,-0.277 -5.357,-0.401c-1.307,-0.124 -2.968,-0.138 -4.165,-0.125c-1.198,0.013 -7.568,-0.105 -8.746,0.023c-1.178,0.128 -3.337,0.189 -4.394,0.157c-1.056,-0.033 -5.892,0.21 -6.767,0.116c-0.95,-0.015 -5.124,-0.097 -6.036,-0.101c-0.912,-0.003 -3.433,0.198 -3.433,0.198l-1.866,0.484c0,0 3.117,0.012 3.472,0.126c0.355,0.115 -3.352,0.559 -3.352,0.559c0,0 3.997,0.312 5.299,0.313c1.301,0.001 4.567,-0.087 5.388,0.122c0.822,0.209 3.273,0.304 4.709,0.366c1.437,0.062 7.16,-0.223 10.671,-0.157c3.511,0.066 6.727,0.231 9.895,0.488c3.169,0.256 5.563,0.368 7.48,0.371c1.917,0.004 6.201,0.073 7.751,0.006c1.551,-0.067 5.145,-0.335 6.803,-0.377c1.657,-0.043 5.473,-0.279 8.579,-0.326c3.107,-0.047 5.582,0.307 6.885,0.326c1.303,0.018 3.178,0.117 4.146,0c0.969,-0.118 2.554,-0.314 4.616,-0.342c2.062,-0.028 2.841,0.092 4.233,0.342c1.393,0.249 5.649,0.24 5.649,0.24l0.889,-1.062l0.127,-1.901Z" style="fill:url(#_Linear1);"/><defs><linearGradient id="_Linear1" x1="0" y1="0" x2="1" y2="0" gradientUnits="userSpaceOnUse" gradientTransform="matrix(-93.2409,0,0,3.19988,93.4624,1.6569)"><stop offset="0" style="stop-color:#469a45;stop-opacity:1"/><stop offset="1" style="stop-color:#b7d774;stop-opacity:1"/></linearGradient></defs></svg>