<?xml version="1.0" encoding="UTF-8" standalone="no"?><!DOCTYPE svg PUBLIC "-//W3C//DTD SVG 1.1//EN" "http://www.w3.org/Graphics/SVG/1.1/DTD/svg11.dtd"><svg width="100%" height="100%" viewBox="0 0 94 4" version="1.1" xmlns="http://www.w3.org/2000/svg" xmlns:xlink="http://www.w3.org/1999/xlink" xml:space="preserve" xmlns:serif="http://www.serif.com/" style="fill-rule:evenodd;clip-rule:evenodd;stroke-linejoin:round;stroke-miterlimit:2;"><path id="menu-4-line-left" d="M0.128,0.128c0,0 1.907,-0.11 3.113,0.082c1.206,0.192 2.662,0.347 3.509,0.149c0.847,-0.197 1.842,-0.3 3.212,-0.302c0,0 0,0 0,0c1.37,-0.002 4.561,0.313 5.68,0.381c1.119,0.067 4.324,0.05 6.208,-0.083c1.884,-0.134 3.466,-0.257 4.309,-0.257c0.843,0.001 5.503,0.061 6.694,0.21c1.19,0.148 4.246,0.201 6.013,0.361c1.767,0.16 12.43,0.218 13.739,0.014c1.309,-0.204 4.049,-0.277 5.356,-0.401c1.307,-0.124 2.969,-0.138 4.166,-0.125c1.198,0.013 7.568,-0.105 8.746,0.023c1.178,0.128 3.337,0.189 4.393,0.157c1.057,-0.033 5.893,0.21 6.767,0.116c0.951,-0.015 5.125,-0.097 6.037,-0.101c0.912,-0.003 3.433,0.198 3.433,0.198l1.866,0.484c0,0 -3.117,0.012 -3.472,0.126c-0.355,0.115 3.352,0.559 3.352,0.559c0,0 -3.997,0.312 -5.299,0.313c-1.302,0.001 -4.567,-0.087 -5.389,0.122c-0.821,0.209 -3.272,0.304 -4.709,0.366c-1.436,0.062 -7.159,-0.223 -10.67,-0.157c-3.511,0.066 -6.727,0.231 -9.896,0.488c-3.168,0.256 -5.563,0.368 -7.479,0.371c-1.917,0.004 -6.201,0.073 -7.752,0.006c-1.55,-0.067 -5.144,-0.335 -6.802,-0.377c-1.657,-0.043 -5.473,-0.279 -8.58,-0.326c-3.106,-0.047 -5.581,0.307 -6.884,0.326c-1.303,0.018 -3.178,0.117 -4.147,0c-0.968,-0.118 -2.553,-0.314 -4.615,-0.342c-2.063,-0.028 -2.841,0.092 -4.234,0.342c-1.393,0.249 -5.648,0.24 -5.648,0.24l-0.889,-1.062l-0.128,-1.901Z" style="fill:url(#_Linear1);"/><defs><linearGradient id="_Linear1" x1="0" y1="0" x2="1" y2="0" gradientUnits="userSpaceOnUse" gradientTransform="matrix(93.2409,0,0,3.19988,0.128346,1.6569)"><stop offset="0" style="stop-color:#469a45;stop-opacity:1"/><stop offset="1" style="stop-color:#b7d774;stop-opacity:1"/></linearGradient></defs></svg>